# AST/ASF file generated using VICON BodyLanguage
# -----------------------------------------------
:version 1.10
:name VICON
:units
  mass 1.0
  length 0.45
  angle deg
:documentation
   .ast/.asf automatically generated from VICON data using
   VICON BodyBuilder and BodyLanguage model FoxedUp or BRILLIANT.MOD
:root
   order TX TY TZ RX RY RZ
   axis XYZ
   position 0 0 0  
   orientation 0 0 0 
:bonedata
  begin
     id 1 
     name lhipjoint
     direction 0.573633 -0.743009 0.344793 
     length 2.46257 
     axis 0 0 0  XYZ
  end
  begin
     id 2 
     name lfemur
     direction 0.34202 -0.939693 0  
     length 7.3842  
     axis 0 0 20  XYZ
    dof rx ry rz
    limits (-160.0 20.0)
           (-70.0 70.0)
           (-60.0 70.0)
  end
  begin
     id 3 
     name ltibia
     direction 0.34202 -0.939693 0   
     length 7.50407   
     axis 0 0 20   XYZ
    dof rx
    limits (-10.0 170.0)
  end
  begin
     id 4 
     name lfoot
     direction 0.110749 -0.304281 0.946123   
     length 1.95925   
     axis -90 7.62852e-016 20   XYZ
    dof rx rz
    limits (-45.0 90.0)
           (-70.0 20.0)
  end
  begin
     id 5 
     name ltoes
     direction 1.53554e-011 -4.21843e-011 1   
     length 0.978318   
     axis -90 7.62852e-016 20   XYZ
    dof rx
    limits (-90.0 20.0)
  end
  begin
     id 6 
     name rhipjoint
     direction -0.488109 -0.791693 0.367385   
     length 2.31113  
     axis 0 0 0  XYZ 
  end
  begin
     id 7 
     name rfemur
     direction -0.34202 -0.939693 0   
     length 7.40965   
     axis 0 0 -20   XYZ
    dof rx ry rz
    limits (-160.0 20.0)
           (-70.0 70.0)
           (-70.0 60.0)
  end
  begin
     id 8 
     name rtibia
     direction -0.34202 -0.939693 0   
     length 7.55548   
     axis 0 0 -20   XYZ
    dof rx
    limits (-10.0 170.0)
 end
 begin
     id 9 
     name rfoot
     direction -0.127594 -0.350561 0.927808   
     length 2.07199  
     axis -90 -7.62852e-016 -20   XYZ
    dof rx rz
    limits (-45.0 90.0)
           (-20.0 70.0)
  end
  begin
     id 10 
     name rtoes
     direction -1.53542e-011 -4.21909e-011 1   
     length 1.02667   
     axis -90 -7.62852e-016 -20   XYZ
    dof rx
    limits (-90.0 20.0)
  end
  begin
     id 11 
     name lowerback
     direction -0.0103342 0.997298 -0.0727278   
     length 2.02836   
     axis 0 0 0   XYZ
    dof rx ry rz
    limits (-20.0 45.0)
           (-30.0 30.0)
           (-30.0 30.0)
  end
  begin
     id 12 
     name upperback
     direction 0.0171146 0.999786 -0.011606   
     length 2.03179   
     axis 0 0 0   XYZ
    dof rx ry rz
    limits (-20.0 45.0)
           (-30.0 30.0)
           (-30.0 30.0)
  end
  begin
     id 13 
     name thorax
     direction 0.0216927 0.999513 0.0224343   
     length 2.03882   
     axis 0 0 0   XYZ
    dof rx ry rz
    limits (-20.0 45.0)
           (-30.0 30.0)
           (-30.0 30.0)
  end
  begin
     id 14 
     name lowerneck
     direction 0.000989287 0.993907 0.110221   
     length 1.75428   
     axis 0 0 0   XYZ
    dof rx ry rz
    limits (-20.0 45.0)
           (-30.0 30.0)
           (-30.0 30.0)
  end
  begin
     id 15 
     name upperneck
     direction -0.0172474 0.994813 -0.100253   
     length 1.77058   
     axis 0 0 0   XYZ
    dof rx ry rz
    limits (-20.0 45.0)
           (-30.0 30.0)
           (-30.0 30.0)
  end
  begin
     id 16
     name head
     direction -0.00486455 0.99894 -0.0457663  
     length 1.77427  
     axis 0 0 0   XYZ
    dof rx ry rz
    limits (-20.0 45.0)
           (-30.0 30.0)
           (-30.0 30.0)
  end
  begin
     id 17 
     name lclavicle
     direction 0.927314 0.333734 -0.169441  
     length 3.97584  
     axis 0 0 0   XYZ
    dof ry rz
    limits (-20.0 10.0)
           (0.0 20.0)
  end
  begin
     id 18 
     name lhumerus
     direction 1 -4.48965e-011 -3.25313e-028   
     length 4.76468   
     axis 180 -30 -90   XYZ
    dof rx ry rz
    limits (-60.0 90.0)
           (-90.0 90.0)
           (-90.0 90.0)
  end
  begin
     id 19
     name lradius
     direction 1 -4.48969e-011 -2.8465e-028   
     length 3.52712   
     axis -180 -30 -90   XYZ
    dof rx
    limits (-10.0 170.0)
  end
  begin
     id 20
     name lwrist
     direction 1 -4.4896e-011 -7.78665e-028   
     length 1.76356   
     axis 1.91374e-015 90 90   XYZ
    dof ry
    limits (-180.0 0.0)
 end
  begin
     id 21 
     name lhand
     direction 1 -4.48959e-011 -1.55733e-027   
     length 0.859564   
     axis 9.9371e-016 90 90   XYZ
    dof rx rz
    limits (-90.0 90.0)
           (-45.0 45.0)
  end
  begin
     id 22 
     name lfingers
     direction 1 -4.48965e-011 -3.11466e-027   
     length 0.693002   
     axis 1.98742e-015 90 90   XYZ
    dof rx
    limits (0.0 90.0)
  end
  begin
     id 23
     name lthumb
     direction 0.707107 -6.34948e-011 0.707107   
     length 0.995017   
     axis -90 45 2.85299e-015   XYZ
    dof rx rz
    limits (-45.0 45.0)
           (-45.0 45.0)
  end
  begin
     id 24 
     name rclavicle
     direction -0.899388 0.348209 -0.264294   
     length 3.68366  
     axis 0 0 0   XYZ 
    dof ry rz
    limits (-10.0 20.0)
           (-20.0 0.0)
  end
  begin
     id 25 
     name rhumerus
     direction -1 -4.48965e-011 -3.01536e-027  
     length 4.90577   
     axis 180 30 90   XYZ
    dof rx ry rz
    limits (-90.0 60.0)
           (-90.0 90.0)
           (-90.0 90.0)
  end
  begin
     id 26 
     name rradius
     direction -1 -4.48966e-011 3.93291e-027   
     length 3.42692   
     axis -180 30 90   XYZ
    dof rx
    limits (-10.0 170.0)
  end
  begin
     id 27 
     name rwrist
     direction -1 -4.48969e-011 -7.78665e-028   
     length 1.71346   
     axis 1.91374e-015 -90 -90   XYZ
    dof ry
    limits (-180.0 0.0)
  end
  begin
     id 28
     name rhand
     direction -1 -4.48967e-011 -1.55733e-027   
     length 0.740957   
     axis 9.9371e-016 -90 -90   XYZ
    dof rx rz
    limits (-90.0 90.0)
           (-45.0 45.0)
  end
  begin
     id 29
     name rfingers
     direction -1 -4.48949e-011 -3.11466e-027   
     length 0.597378   
     axis 1.98742e-015 -90 -90   XYZ
    dof rx
    limits (0.0 90.0)
  end
  begin
     id 30
     name rthumb
     direction -0.707107 -6.34931e-011 0.707107   
     length 0.857719   
     axis -90 -45 -2.85299e-015   XYZ
    dof rx rz
    limits (-45.0 45.0)
           (-45.0 45.0)
  end
:hierarchy
  begin
    root lhipjoint rhipjoint lowerback
    lhipjoint lfemur
    lfemur ltibia
    ltibia lfoot
    lfoot ltoes
    rhipjoint rfemur
    rfemur rtibia
    rtibia rfoot
    rfoot rtoes
    lowerback upperback
    upperback thorax
    thorax lowerneck lclavicle rclavicle
    lowerneck upperneck
    upperneck head
    lclavicle lhumerus
    lhumerus lradius
    lradius lwrist
    lwrist lhand lthumb
    lhand lfingers
    rclavicle rhumerus
    rhumerus rradius
    rradius rwrist
    rwrist rhand rthumb
    rhand rfingers
  end

#!OML:ASF E:\I on waltz\AllaLogoMonkeySwing\Project 1\Capture day 1\Session 1\Subject1.ASF
:FULLY-SPECIFIED
:DEGREES
49
root -0.159251 18.0538 -27.4231 3.31173 -2.99101 -0.268398
lowerback 6.97172 -0.93536 -4.40564
upperback 0.675205 -1.52193 1.91015
thorax -3.04433 -0.692903 4.60682
lowerneck -8.03936 -6.69799 -7.07831
upperneck 9.29605 -8.37656 2.27518
head 4.49344 -4.24559 1.28731
rclavicle -2.26118e-014 1.03368e-014
rhumerus -22.9833 -11.2546 -86.0945
rradius 23.5716
rwrist 6.01364
rhand -9.43416 -38.7841
rfingers 7.12502
rthumb 16.5285 -68.1001
lclavicle -2.26118e-014 1.03368e-014
lhumerus -42.143 30.475 72.7422
lradius 53.0845
lwrist 169.441
lhand -31.9395 12.645
lfingers 7.12502
lthumb -5.19032 42.5614
rfemur -4.27434 -0.679523 18.5027
rtibia 17.9799
rfoot -16.2548 -8.89053
rtoes 8.96338
lfemur 1.47438 3.44134 -19.1234
ltibia 8.75172
lfoot -12.7848 1.79736
ltoes -28.0033
50
root -0.165304 18.0551 -27.4181 3.3346 -2.92815 -0.274628
lowerback 7.02216 -0.965683 -4.37299
upperback 0.62777 -1.56188 1.92119
thorax -3.11796 -0.710047 4.60583
lowerneck -7.90303 -6.64664 -7.29202
upperneck 9.24477 -8.31011 2.4492
head 4.46868 -4.21158 1.38353
rclavicle 1.01877e-014 -4.96962e-015
rhumerus -22.2017 -12.2584 -85.7786
rradius 22.4648
rwrist 6.77087
rhand -9.5269 -38.9055
rfingers 7.12502
rthumb 16.4392 -68.229
lclavicle 1.01877e-014 -4.96962e-015
lhumerus -42.4981 31.0821 72.059
lradius 52.526
lwrist 168.901
lhand -31.891 12.5365
lfingers 7.12502
lthumb -5.14348 42.4541
rfemur -4.22977 -0.711733 18.5421
rtibia 17.8941
rfoot -16.2124 -8.93877
rtoes 8.95856
lfemur 1.50994 3.7199 -19.0125
ltibia 8.67415
lfoot -12.8307 1.50145
ltoes -28.1844
51
root -0.170519 18.0576 -27.414 3.42168 -2.82427 -0.284404
lowerback 7.03397 -0.97111 -4.28655
upperback 0.556623 -1.56438 1.89275
thorax -3.20132 -0.708727 4.52898
lowerneck -7.86431 -6.66528 -7.27202
upperneck 9.2999 -8.33889 2.42601
head 4.47884 -4.22717 1.37163
rclavicle 3.12092e-014 -2.10712e-014
rhumerus -22.2931 -13.061 -85.3978
rradius 22.2175
rwrist 7.19524
rhand -9.4209 -38.8685
rfingers 7.12502
rthumb 16.5412 -68.1834
lclavicle 3.12092e-014 -2.10712e-014
lhumerus -42.8336 31.6485 71.3227
lradius 51.9145
lwrist 168.279
lhand -31.8795 12.6367
lfingers 7.12502
lthumb -5.13237 42.5545
rfemur -4.28575 -0.753283 18.5826
rtibia 17.8617
rfoot -16.1267 -9.01487
rtoes 9.23502
lfemur 1.43904 3.94577 -18.9073
ltibia 8.65048
lfoot -12.8859 1.19708
ltoes -28.1258
52
root -0.173911 18.0612 -27.4099 3.53289 -2.71979 -0.415377
lowerback 7.00605 -0.989409 -4.06022
upperback 0.499002 -1.57094 1.87616
thorax -3.25127 -0.712683 4.38411
lowerneck -7.94648 -6.69885 -7.17769
upperneck 9.42618 -8.38806 2.39811
head 4.52836 -4.24991 1.34004
rclavicle 6.18717e-015 -5.96354e-015
rhumerus -22.3837 -13.7252 -85.0846
rradius 21.8933
rwrist 7.59462
rhand -9.32792 -38.4398
rfingers 7.12502
rthumb 16.6308 -67.7472
lclavicle 6.18717e-015 -5.96354e-015
lhumerus -43.1511 32.1297 70.5933
lradius 51.329
lwrist 167.696
lhand -31.7767 12.8114
lfingers 7.12502
lthumb -5.03316 42.7316
rfemur -4.38938 -0.777132 18.77
rtibia 17.8828
rfoot -16.0797 -9.08046
rtoes 9.58441
lfemur 1.34568 4.00947 -18.6984
ltibia 8.63266
lfoot -12.9116 0.937775
ltoes -28.0322
53
root -0.17832 18.0633 -27.4058 3.58787 -2.62098 -0.603099
lowerback 6.99504 -1.01695 -3.82757
upperback 0.48104 -1.58803 1.906
thorax -3.26732 -0.723552 4.28499
lowerneck -8.03706 -6.70898 -7.14226
upperneck 9.51586 -8.40308 2.42085
head 4.57109 -4.25465 1.33579
rclavicle 2.66868e-014 -2.10712e-014
rhumerus -22.4479 -14.2137 -84.811
rradius 21.6179
rwrist 7.85303
rhand -9.34166 -38.3677
rfingers 7.12502
rthumb 16.6175 -67.6763
lclavicle 2.66868e-014 -2.10712e-014
lhumerus -43.4284 32.6842 69.8649
lradius 50.7366
lwrist 167.119
lhand -31.6683 12.8178
lfingers 7.12502
lthumb -4.92847 42.7404
rfemur -4.41277 -0.739266 19.039
rtibia 17.8653
rfoot -16.091 -9.16174
rtoes 9.82097
lfemur 1.3558 3.98154 -18.4232
ltibia 8.5342
lfoot -12.8849 0.732886
ltoes -27.9581
54
root -0.185933 18.0627 -27.4022 3.57214 -2.45994 -0.713863
lowerback 7.08903 -1.04158 -3.67572
upperback 0.454011 -1.6116 1.91663
thorax -3.34947 -0.734777 4.21561
lowerneck -8.07561 -6.72342 -7.07867
upperneck 9.60322 -8.42275 2.36686
head 4.60025 -4.26544 1.30528
rclavicle -1.02374e-014 1.96797e-014
rhumerus -22.6295 -14.9481 -84.4215
rradius 21.34
rwrist 8.32398
rhand -9.38069 -38.2099
rfingers 7.12502
rthumb 16.58 -67.5217
lclavicle -1.02374e-014 1.96797e-014
lhumerus -43.7394 33.1992 69.0752
lradius 50.1387
lwrist 166.678
lhand -31.7289 12.6737
lfingers 7.12502
lthumb -4.987 42.595
rfemur -4.35026 -0.800473 19.2104
rtibia 17.9316
rfoot -16.2482 -9.16353
rtoes 9.6711
lfemur 1.45864 3.98936 -18.2106
ltibia 8.39379
lfoot -12.8426 0.593266
ltoes -27.8166
55
root -0.194566 18.0632 -27.3994 3.5792 -2.24306 -0.576013
lowerback 7.15901 -1.08011 -3.77237
upperback 0.417228 -1.67508 1.86195
thorax -3.41951 -0.762742 4.22209
lowerneck -8.04261 -6.73668 -7.07053
upperneck 9.63887 -8.44361 2.35777
head 4.60604 -4.27651 1.30018
rclavicle 3.97569e-016 1.92821e-014
rhumerus -22.8632 -15.7028 -83.9863
rradius 21.0075
rwrist 8.8415
rhand -9.45643 -38.1168
rfingers 7.12502
rthumb 16.507 -67.4346
lclavicle 3.97569e-016 1.92821e-014
lhumerus -44.0977 33.8227 68.2585
lradius 49.5303
lwrist 166.352
lhand -31.7471 12.4468
lfingers 7.12502
lthumb -5.00457 42.3677
rfemur -4.3326 -0.999144 19.0641
rtibia 18.0269
rfoot -16.3485 -9.15028
rtoes 9.34605
lfemur 1.49506 4.00183 -18.3111
ltibia 8.29619
lfoot -12.8539 0.362933
ltoes -27.8882
56
root -0.202835 18.0652 -27.3987 3.61756 -2.03851 -0.362985
lowerback 7.17465 -1.12264 -3.94489
upperback 0.397162 -1.7489 1.79162
thorax -3.43888 -0.796362 4.25416
lowerneck -8.01722 -6.74975 -7.19253
upperneck 9.65713 -8.46719 2.52476
head 4.62113 -4.28339 1.36855
rclavicle 2.6339e-014 -3.77691e-015
rhumerus -23.0053 -16.2315 -83.6438
rradius 20.7924
rwrist 8.95619
rhand -9.28899 -38.2067
rfingers 7.12502
rthumb 16.6682 -67.511
lclavicle 2.6339e-014 -3.77691e-015
lhumerus -44.4703 34.6555 67.4152
lradius 48.9279
lwrist 165.871
lhand -31.6911 12.3731
lfingers 7.12502
lthumb -4.95047 42.2953
rfemur -4.36785 -1.07631 18.8347
rtibia 17.8638
rfoot -16.05 -9.35933
rtoes 9.90125
lfemur 1.45164 3.98627 -18.5176
ltibia 8.23942
lfoot -12.9164 0.134479
ltoes -28.1732
57
root -0.210407 18.0658 -27.3989 3.64922 -1.8639 -0.293343
lowerback 7.21097 -1.14652 -3.93466
upperback 0.377084 -1.78311 1.74118
thorax -3.47853 -0.812394 4.20047
lowerneck -8.02081 -6.76401 -7.29509
upperneck 9.7169 -8.49671 2.71981
head 4.65453 -4.29093 1.4404
rclavicle -7.90169e-015 -5.96354e-015
rhumerus -23.1021 -16.8591 -83.3015
rradius 20.3354
rwrist 9.74599
rhand -9.31903 -38.2043
rfingers 7.12502
rthumb 16.6393 -67.5111
lclavicle -7.90169e-015 -5.96354e-015
lhumerus -44.824 35.3234 66.6101
lradius 48.3897
lwrist 165.354
lhand -31.6746 12.4184
lfingers 7.12502
lthumb -4.93449 42.3409
rfemur -4.41835 -1.18746 18.7837
rtibia 17.9257
rfoot -16.2408 -9.4291
rtoes 9.78427
lfemur 1.40048 4.01565 -18.5506
ltibia 8.21532
lfoot -12.9952 -0.0841075
ltoes -28.2241
58
root -0.219332 18.0648 -27.3989 3.70371 -1.72051 -0.354216
lowerback 7.17798 -1.15977 -3.83088
upperback 0.378478 -1.79084 1.74841
thorax -3.46068 -0.818308 4.14887
lowerneck -8.04377 -6.75652 -7.43815
upperneck 9.80146 -8.49355 2.93701
head 4.69996 -4.28255 1.52678
rclavicle -1.2424e-016 -3.29983e-014
rhumerus -23.1481 -17.5797 -82.9018
rradius 19.9216
rwrist 10.3136
rhand -9.15171 -38.2865
rfingers 7.12502
rthumb 16.8004 -67.5796
lclavicle -1.2424e-016 -3.29983e-014
lhumerus -45.1032 35.8527 65.9619
lradius 47.9269
lwrist 164.812
lhand -31.5569 12.375
lfingers 7.12502
lthumb -4.82085 42.3001
rfemur -4.49611 -1.26033 18.898
rtibia 17.9709
rfoot -16.1986 -9.483
rtoes 9.86961
lfemur 1.32378 4.04383 -18.4213
ltibia 8.2159
lfoot -12.9901 -0.311581
ltoes -27.9835
59
root -0.231269 18.0645 -27.3982 3.72672 -1.59211 -0.406275
lowerback 7.11137 -1.18214 -3.80953
upperback 0.424727 -1.81458 1.79555
thorax -3.37204 -0.833332 4.18504
lowerneck -8.10242 -6.73404 -7.62495
upperneck 9.88128 -8.45558 3.10078
head 4.74767 -4.26123 1.60531
rclavicle -1.82136e-014 1.39149e-015
rhumerus -23.1747 -18.1702 -82.5152
rradius 19.5799
rwrist 10.6641
rhand -9.00222 -38.2864
rfingers 7.12502
rthumb 16.9443 -67.5673
lclavicle -1.82136e-014 1.39149e-015
lhumerus -45.3544 36.4869 65.3956
lradius 47.5036
lwrist 164.32
lhand -31.4371 12.3388
lfingers 7.12502
lthumb -4.70525 42.2666
rfemur -4.51656 -1.24731 19.0223
rtibia 17.9918
rfoot -16.2094 -9.6105
rtoes 10.0306
lfemur 1.29018 4.01307 -18.2882
ltibia 8.19761
lfoot -12.8829 -0.300885
ltoes -28.0307
